#tb 0: 200/2997
#media_type 0: video
#codec_id 0: rawvideo
#dimensions 0: 160x120
#sar 0: 0/1
0,          0,          0,        1,    57600, 0x1f5c89b7
0,          1,          1,        1,    57600, 0xd2055aaf
0,          2,          2,        1,    57600, 0x22336052
0,          3,          3,        1,    57600, 0xf7135e2a
0,          4,          4,        1,    57600, 0xd9de126a
0,          5,          5,        1,    57600, 0xe5a9e1de
0,          6,          6,        1,    57600, 0x253f1702
0,          7,          7,        1,    57600, 0xcb8679c9
0,          8,          8,        1,    57600, 0x96cb5fa8
0,          9,          9,        1,    57600, 0xbe03528a
0,         10,         10,        1,    57600, 0x120a097d
0,         11,         11,        1,    57600, 0xaf562041
0,         12,         12,        1,    57600, 0x15b2d8c9
0,         13,         13,        1,    57600, 0x95f60e58
0,         14,         14,        1,    57600, 0x5ace5a6b
0,         15,         15,        1,    57600, 0x2f80b8e3
0,         16,         16,        1,    57600, 0x5c49c915
0,         17,         17,        1,    57600, 0xb91efe60
0,         18,         18,        1,    57600, 0xa80d29e8
0,         19,         19,        1,    57600, 0x6e72d03a
0,         20,         20,        1,    57600, 0x4f716a9e
0,         21,         21,        1,    57600, 0x3a43b9c9
0,         22,         22,        1,    57600, 0x65002db3
0,         23,         23,        1,    57600, 0x70edc765
0,         24,         24,        1,    57600, 0x9dc54abd
0,         25,         25,        1,    57600, 0xd17bda86
0,         26,         26,        1,    57600, 0xc5d2d458
0,         27,         27,        1,    57600, 0x32313c79
0,         28,         28,        1,    57600, 0x2e537e8d
0,         29,         29,        1,    57600, 0xe77d5d9e
0,         30,         30,        1,    57600, 0x9cc2599a
0,         31,         31,        1,    57600, 0x8a9be76e
0,         32,         32,        1,    57600, 0x47447eef
0,         33,         33,        1,    57600, 0xbf5f84fa
0,         34,         34,        1,    57600, 0xacd49c07
0,         35,         35,        1,    57600, 0xdc628975
0,         36,         36,        1,    57600, 0x97d7964e
0,         37,         37,        1,    57600, 0xd0a19b6b
0,         38,         38,        1,    57600, 0x5ea3d78c
0,         39,         39,        1,    57600, 0x39b59be0
0,         40,         40,        1,    57600, 0x6501a2d2
0,         41,         41,        1,    57600, 0x0ee7e36d
0,         42,         42,        1,    57600, 0x354ddd1d
0,         43,         43,        1,    57600, 0x9b8f22d3
0,         44,         44,        1,    57600, 0x0aadfb8c
0,         45,         45,        1,    57600, 0x322e2785
0,         46,         46,        1,    57600, 0x78a6467e
0,         47,         47,        1,    57600, 0x1757f3b1
0,         48,         48,        1,    57600, 0xe874ceb7
0,         49,         49,        1,    57600, 0xc40f9e4d
0,         50,         50,        1,    57600, 0x89f6a735
0,         51,         51,        1,    57600, 0xe3635393
0,         52,         52,        1,    57600, 0xdae585c7
0,         53,         53,        1,    57600, 0xf99baa60
0,         54,         54,        1,    57600, 0x28a8b1ee
0,         55,         55,        1,    57600, 0xcd5587f8
